<svg width="20" height="20" viewBox="0 0 20 20" fill="none" xmlns="http://www.w3.org/2000/svg">
<path d="M14.2249 0.0566158C13.2111 0.217377 12.2062 0.739853 11.4559 1.49454C11.1298 1.82053 10.7189 2.38766 10.5582 2.72705C10.5135 2.82082 10.4644 2.89674 10.442 2.89674C10.4242 2.89674 10.0267 2.72705 9.56666 2.51716C9.03965 2.28049 8.66896 2.13759 8.5707 2.13759C8.39652 2.13759 0.406469 5.74579 0.227821 5.90656C-0.00888843 6.11644 4.39885e-05 5.92442 4.39885e-05 11.0688C4.39885e-05 16.2132 -0.00888843 16.0211 0.227821 16.231C0.406469 16.3963 8.39652 20 8.57517 20C8.75381 20 16.7439 16.3963 16.9225 16.231C17.1548 16.0211 17.1503 16.0837 17.1503 12.6764V9.50583L17.3647 9.39866C18.2266 8.95656 19.0708 8.06791 19.5174 7.13013C20.5089 5.04023 19.9372 2.53949 18.1284 1.0971C17.0431 0.226309 15.6005 -0.153267 14.2249 0.0566158ZM15.8551 1.5258C16.7796 1.78034 17.4987 2.29388 18.0033 3.06643C18.3964 3.66482 18.5571 4.21856 18.5571 4.99557C18.5571 6.0048 18.2222 6.81754 17.5254 7.51417C16.1409 8.89851 13.8989 8.90744 12.5099 7.5365C11.7908 6.82647 11.4559 6.0182 11.4559 4.99557C11.4559 4.21856 11.6167 3.66929 12.0141 3.0575C12.5412 2.25369 13.3674 1.69103 14.3366 1.48561C14.6939 1.40969 15.5067 1.43202 15.8551 1.5258ZM9.32102 3.97742L10.0267 4.29447V4.96878C10.0267 5.34836 10.0535 5.75919 10.0847 5.91102C10.2366 6.60766 10.518 7.2775 10.8797 7.79997L11.0762 8.0813L10.8842 8.16169C10.7815 8.20634 10.2232 8.46088 9.64706 8.72435C8.75828 9.13072 8.57963 9.19771 8.48584 9.16198C8.19107 9.05034 2.50112 6.44689 2.50112 6.42457C2.50112 6.39331 8.48138 3.66482 8.56177 3.66036C8.58856 3.65589 8.928 3.79879 9.32102 3.97742ZM4.68063 9.01462L7.86057 10.457V14.3153C7.86057 16.4364 7.84717 18.1646 7.82931 18.1557C7.80698 18.1468 6.35993 17.4859 4.61364 16.6955L1.42923 15.2531V11.3948C1.42923 9.27362 1.44263 7.54543 1.46496 7.55436C1.48283 7.5633 2.92988 8.21974 4.68063 9.01462ZM12.3759 9.24236C12.6082 9.40759 13.3272 9.72018 13.68 9.81396C14.2249 9.95686 14.7564 10.0104 15.2655 9.97919L15.7211 9.95239V12.6005V15.2531L12.5412 16.6955C10.7904 17.4903 9.34335 18.1468 9.32549 18.1557C9.30316 18.1646 9.28976 16.4364 9.28976 14.3153V10.457L10.71 9.80949C11.4871 9.45224 12.1526 9.15752 12.1839 9.15305C12.2196 9.14858 12.3045 9.18877 12.3759 9.24236Z" fill="white"/>
<path d="M15.2162 2.20012C15.051 2.27603 14.9036 2.43233 14.841 2.59756C14.8142 2.66901 14.7919 3.05752 14.7919 3.49961V4.27662L13.9478 4.29002C13.0233 4.30342 12.9831 4.31682 12.7643 4.61155C12.6347 4.7857 12.6347 5.20547 12.7643 5.37963C12.9831 5.67436 13.0233 5.68776 13.9433 5.70115L14.7874 5.71455L14.8008 6.55855C14.8142 7.47846 14.8276 7.51865 15.1224 7.73747C15.2966 7.86697 15.7164 7.86697 15.8906 7.73747C16.1854 7.51865 16.1988 7.47846 16.2122 6.55855L16.2256 5.71455L17.0697 5.70115C17.9897 5.68776 18.0299 5.67436 18.2488 5.37963C18.3783 5.20547 18.3783 4.7857 18.2488 4.61155C18.0299 4.31682 17.9897 4.30342 17.0697 4.29002L16.2256 4.27662L16.2122 3.43263C16.1988 2.51271 16.1854 2.47252 15.8995 2.25817C15.7477 2.14653 15.3949 2.11527 15.2162 2.20012Z" fill="white"/>
</svg>
