<svg width="20" height="20" viewBox="0 0 20 20" fill="none" xmlns="http://www.w3.org/2000/svg">
<path d="M9.17187 0.0289974C5.0493 0.386532 1.51759 3.26468 0.385118 7.19309C0.0807372 8.24335 -0.0043103 8.86009 0.000165882 10.031C0.000165882 11.1438 0.0717849 11.6936 0.349308 12.6991C1.08788 15.3806 2.99473 17.6912 5.51483 18.9649C6.31159 19.3671 7.42616 19.7202 8.4333 19.8945C9.19425 20.0241 10.7206 20.0375 11.4547 19.9168C13.7421 19.5414 15.6579 18.5537 17.2111 16.9493C18.4197 15.6979 19.2522 14.2186 19.6864 12.5472C19.9461 11.555 20.0042 11.0947 19.9998 9.98633C19.9998 8.92266 19.9281 8.35508 19.6909 7.44336C18.8315 4.14064 16.2129 1.43232 12.9005 0.426754C11.7949 0.0870968 10.3043 -0.0693245 9.17187 0.0289974ZM11.2041 1.49936C12.3902 1.67366 13.5048 2.07141 14.5075 2.68369C15.6355 3.37194 16.7232 4.48477 17.4081 5.65122C19.0598 8.44893 18.9658 11.993 17.1708 14.7013C16.8575 15.175 16.383 15.7739 16.3203 15.7739C16.3024 15.7739 16.2487 15.6264 16.204 15.4477C16.007 14.6834 15.5415 13.7851 14.9909 13.1058C14.0554 11.9438 12.6543 11.126 11.0966 10.831C10.5505 10.7237 9.4494 10.7237 8.9033 10.831C6.68759 11.2511 4.92397 12.65 4.06454 14.6745C3.95711 14.9248 3.83626 15.2734 3.79597 15.4477C3.75121 15.6264 3.70197 15.7739 3.67959 15.7739C3.61692 15.7739 3.1514 15.184 2.82912 14.7013C1.02969 12.0064 0.940165 8.4534 2.59188 5.65122C3.27226 4.49371 4.3734 3.36747 5.49245 2.68369C6.48168 2.08035 7.63206 1.66472 8.7914 1.49489C9.34644 1.40997 10.6311 1.41444 11.2041 1.49936ZM11.213 12.1226C11.7994 12.2745 12.2381 12.4667 12.7081 12.7706C13.6839 13.4052 14.3911 14.3214 14.7626 15.4208C14.8835 15.7873 15.0133 16.4845 15.0133 16.7929C15.0133 16.9806 15.0088 16.9851 14.6776 17.1996C12.5111 18.6118 9.78959 18.9694 7.32321 18.1605C6.76368 17.9772 5.83264 17.5303 5.32683 17.2041L4.97321 16.9761L5.00007 16.6275C5.16121 14.5628 6.57121 12.7885 8.5273 12.1941C9.10025 12.0198 9.4494 11.9751 10.1343 11.993C10.6401 12.0064 10.8773 12.0332 11.213 12.1226Z" fill="white"/>
<path d="M9.35093 2.92047C8.37512 3.11264 7.53807 3.67129 7.00093 4.49809C6.60255 5.1059 6.44141 5.65561 6.44141 6.43324C6.44141 7.21088 6.60255 7.76059 6.99645 8.36393C8.08417 10.022 10.2954 10.5002 11.9382 9.42759C13.5944 8.35052 14.0733 6.13381 12.999 4.49809C12.4977 3.72492 11.7815 3.21543 10.8505 2.96516C10.5013 2.86684 9.7314 2.84896 9.35093 2.92047ZM10.5147 4.35507C11.6606 4.65451 12.3724 5.82543 12.0814 6.93826C11.88 7.71143 11.2846 8.3103 10.5147 8.51141C9.39121 8.80191 8.21845 8.09131 7.91855 6.9472C7.52017 5.41427 8.9794 3.95732 10.5147 4.35507Z" fill="white"/>
</svg>
